# Blender v3.3.1 OBJ File: 'volume.blend'
# www.blender.org
mtllib volume.mtl
o Sphere
v -0.020833 -0.477671 -0.791266
v 0.211603 -0.806217 -0.453109
v -0.043301 -0.806217 -0.498205
v 0.050000 0.436603 -0.819615
v 0.456838 0.000000 -0.791266
v 0.000000 0.000000 -0.913675
v -0.000000 0.785683 -0.519337
v 0.000000 0.933012 0.000000
v 0.286603 0.806218 -0.409808
v 0.000000 -0.933012 -0.000000
v 0.377591 -0.477671 -0.695673
v 0.413675 0.477671 -0.674840
v 0.409808 -0.806217 -0.286603
v 0.791266 0.000000 -0.456838
v 0.404006 0.837019 -0.233253
v 0.674840 -0.477671 -0.413675
v 0.685577 0.507005 -0.354579
v 0.913675 0.000000 0.000000
v 0.519338 0.785683 0.000000
v 0.519338 -0.785683 -0.000000
v 0.819616 -0.436603 -0.050000
v 0.819615 0.436603 0.050000
v 0.409808 0.806217 0.286603
v 0.404006 -0.837019 0.233253
v 0.678005 -0.474880 0.391446
v 0.674840 0.477671 0.413675
v 0.819615 0.050000 0.423205
v 0.286603 -0.806218 0.409808
v 0.519338 -0.000000 0.755181
v 0.341506 -0.477671 0.716506
v 0.377591 0.477671 0.695673
v 0.211603 0.806217 0.453109
v 0.000000 -0.785683 0.519338
v 0.030930 -0.035714 0.908150
v 0.000000 -0.483253 0.808013
v -0.020833 0.477671 0.791266
v -0.043301 0.806217 0.498205
v -0.286603 -0.806218 0.409808
v -0.341506 -0.477671 0.716506
v -0.416438 0.507005 0.649863
v -0.456838 -0.000000 0.791266
v -0.233253 0.837019 0.404007
v -0.649863 -0.507005 0.416438
v -0.449760 0.785683 0.259669
v -0.734808 0.436602 0.366507
v -0.404006 -0.837019 0.233253
v -0.791266 -0.000000 0.456838
v -0.771016 0.507005 -0.035714
v -0.498205 -0.806217 0.043301
v -0.913675 0.000000 0.000000
v -0.466506 0.837019 0.000000
v -0.791266 -0.477671 0.020833
v -0.453109 -0.806217 -0.211603
v -0.791266 0.000000 -0.456838
v -0.449760 0.785683 -0.259669
v -0.695673 -0.477671 -0.377591
v -0.684808 0.436603 -0.453109
v -0.286603 -0.806217 -0.409808
v -0.456838 0.000000 -0.791266
v -0.233253 0.837019 -0.404006
v -0.413675 -0.477671 -0.674840
v -0.354579 0.507005 -0.685577
vn 0.1301 -0.6649 -0.7355
vn 0.2548 0.1757 -0.9509
vn 0.0354 0.9614 -0.2727
vn 0.0442 -0.9672 -0.2500
vn 0.2258 -0.2511 -0.9413
vn 0.2147 0.6544 -0.7250
vn 0.4804 -0.6649 -0.5719
vn 0.6882 0.2299 -0.6882
vn 0.0957 0.9679 -0.2325
vn 0.1633 -0.9672 -0.1944
vn 0.6662 -0.2511 -0.7022
vn 0.5546 0.6418 -0.5297
vn 0.9363 0.2458 -0.2509
vn 0.2721 0.9592 0.0766
vn 0.2727 -0.9614 -0.0354
vn 0.9086 -0.2516 -0.3333
vn 0.7604 0.6338 -0.1416
vn 0.7139 -0.6630 -0.2253
vn 0.2727 0.9614 0.0354
vn 0.2721 -0.9592 -0.0766
vn 0.9318 -0.2327 0.2787
vn 0.7250 0.6544 0.2147
vn 0.7299 -0.6477 0.2184
vn 0.9636 0.1856 0.1922
vn 0.0957 -0.9679 0.2325
vn 0.6635 -0.3024 0.6843
vn 0.5281 0.6413 0.5567
vn 0.5746 -0.6513 0.4957
vn 0.6987 0.2514 0.6698
vn 0.1633 0.9672 0.1944
vn 0.0354 -0.9614 0.2727
vn 0.2555 -0.2279 0.9396
vn 0.1790 0.6413 0.7461
vn 0.2166 -0.6853 0.6953
vn 0.2795 0.1999 0.9391
vn 0.0442 0.9672 0.2500
vn -0.0354 -0.9614 0.2727
vn -0.2569 -0.1941 0.9468
vn -0.2155 0.6418 0.7360
vn -0.2166 -0.6853 0.6953
vn -0.2149 0.1962 0.9567
vn 0.0334 0.9679 0.2492
vn -0.6584 -0.2690 0.7029
vn -0.5877 0.6338 0.5029
vn -0.5508 -0.6794 0.4848
vn -0.6854 0.2458 0.6854
vn -0.2739 0.9592 0.0698
vn -0.0957 -0.9679 0.2325
vn -0.7340 0.6547 0.1807
vn -0.7081 -0.6628 0.2437
vn -0.9509 0.1757 0.2548
vn -0.1974 0.9592 0.2024
vn -0.2492 -0.9679 -0.0334
vn -0.9108 -0.2783 0.3049
vn -0.7355 -0.6649 -0.1301
vn -0.9363 0.2458 -0.2509
vn -0.1974 0.9592 -0.2024
vn -0.2500 -0.9672 -0.0442
vn -0.9413 -0.2511 -0.2258
vn -0.7293 0.6338 -0.2575
vn -0.5719 -0.6649 -0.4804
vn -0.6961 0.1757 -0.6961
vn -0.2739 0.9592 -0.0698
vn -0.1944 -0.9672 -0.1633
vn -0.7022 -0.2511 -0.6662
vn -0.5235 0.6547 -0.5453
vn -0.2551 -0.6649 -0.7020
vn -0.2509 0.2458 -0.9363
vn 0.0766 0.9592 -0.2721
vn -0.0867 -0.9672 -0.2386
vn -0.2751 -0.2511 -0.9281
vn -0.1416 0.6338 -0.7604
vn 0.1790 -0.6413 -0.7461
vn 0.3333 0.2516 -0.9086
vn 0.2519 -0.2299 -0.9400
vn 0.2253 0.6630 -0.7139
vn 0.5281 -0.6413 -0.5567
vn 0.7195 0.2783 -0.6363
vn 0.6882 -0.2299 -0.6882
vn 0.5651 0.6628 -0.4914
vn 0.9347 0.2322 -0.2693
vn 0.9509 -0.1757 -0.2548
vn 0.7076 0.6775 -0.2007
vn 0.7250 -0.6544 -0.2147
vn 0.9338 -0.2664 0.2390
vn 0.7139 0.6630 0.2253
vn 0.7577 -0.6247 0.1889
vn 0.8948 0.3101 0.3212
vn 0.7380 -0.2373 0.6317
vn 0.4804 0.6649 0.5719
vn 0.5491 -0.6175 0.5632
vn 0.6602 0.2826 0.6959
vn 0.3061 -0.1895 0.9330
vn 0.1301 0.6649 0.7355
vn 0.2009 -0.6764 0.7086
vn 0.2266 0.2379 0.9445
vn -0.2423 -0.2069 0.9479
vn -0.2437 0.6628 0.7081
vn -0.2009 -0.6764 0.7086
vn -0.3049 0.2783 0.9108
vn -0.6854 -0.2458 0.6854
vn -0.5124 0.6775 0.5276
vn -0.5092 -0.6312 0.5850
vn -0.6748 0.2322 0.7005
vn -0.7328 0.6570 0.1771
vn -0.7360 -0.6418 0.2155
vn -0.9514 0.2772 0.1342
vn -0.9400 -0.2299 0.2519
vn -0.7461 -0.6413 -0.1790
vn -0.9441 0.2322 -0.2342
vn -0.9400 -0.2299 -0.2519
vn -0.7132 0.6775 -0.1799
vn -0.5567 -0.6413 -0.5281
vn -0.5919 0.2772 -0.7569
vn -0.6882 -0.2299 -0.6882
vn -0.5198 0.6570 -0.5460
vn -0.2180 -0.6413 -0.7357
vn -0.2693 0.2322 -0.9347
vn -0.2519 -0.2299 -0.9400
vn -0.2007 0.6775 -0.7076
usemtl Default_OBJ
s off
f 1//1 2//1 3//1
f 4//2 5//2 6//2
f 7//3 8//3 9//3
f 10//4 3//4 2//4
f 6//5 11//5 1//5
f 7//6 12//6 4//6
f 11//7 13//7 2//7
f 12//8 14//8 5//8
f 9//9 8//9 15//9
f 10//10 2//10 13//10
f 5//11 16//11 11//11
f 9//12 17//12 12//12
f 17//13 18//13 14//13
f 15//14 8//14 19//14
f 10//15 13//15 20//15
f 14//16 21//16 16//16
f 17//17 19//17 22//17
f 16//18 20//18 13//18
f 19//19 8//19 23//19
f 10//20 20//20 24//20
f 18//21 25//21 21//21
f 19//22 26//22 22//22
f 20//23 25//23 24//23
f 22//24 27//24 18//24
f 10//25 24//25 28//25
f 25//26 29//26 30//26
f 23//27 31//27 26//27
f 25//28 28//28 24//28
f 26//29 29//29 27//29
f 23//30 8//30 32//30
f 10//31 28//31 33//31
f 30//32 34//32 35//32
f 32//33 36//33 31//33
f 30//34 33//34 28//34
f 31//35 34//35 29//35
f 32//36 8//36 37//36
f 10//37 33//37 38//37
f 34//38 39//38 35//38
f 37//39 40//39 36//39
f 33//40 39//40 38//40
f 36//41 41//41 34//41
f 37//42 8//42 42//42
f 41//43 43//43 39//43
f 40//44 44//44 45//44
f 38//45 43//45 46//45
f 40//46 47//46 41//46
f 42//47 8//47 44//47
f 10//48 38//48 46//48
f 44//49 48//49 45//49
f 43//50 49//50 46//50
f 45//51 50//51 47//51
f 44//52 8//52 51//52
f 10//53 46//53 49//53
f 47//54 52//54 43//54
f 52//55 53//55 49//55
f 48//56 54//56 50//56
f 51//57 8//57 55//57
f 10//58 49//58 53//58
f 50//59 56//59 52//59
f 48//60 55//60 57//60
f 56//61 58//61 53//61
f 57//62 59//62 54//62
f 55//63 8//63 60//63
f 10//64 53//64 58//64
f 54//65 61//65 56//65
f 55//66 62//66 57//66
f 61//67 3//67 58//67
f 62//68 6//68 59//68
f 60//69 8//69 7//69
f 10//70 58//70 3//70
f 59//71 1//71 61//71
f 62//72 7//72 4//72
f 1//73 11//73 2//73
f 4//74 12//74 5//74
f 6//75 5//75 11//75
f 7//76 9//76 12//76
f 11//77 16//77 13//77
f 12//78 17//78 14//78
f 5//79 14//79 16//79
f 9//80 15//80 17//80
f 17//81 22//81 18//81
f 14//82 18//82 21//82
f 17//83 15//83 19//83
f 16//84 21//84 20//84
f 18//85 27//85 25//85
f 19//86 23//86 26//86
f 20//87 21//87 25//87
f 22//88 26//88 27//88
f 25//89 27//89 29//89
f 23//90 32//90 31//90
f 25//91 30//91 28//91
f 26//92 31//92 29//92
f 30//93 29//93 34//93
f 32//94 37//94 36//94
f 30//95 35//95 33//95
f 31//96 36//96 34//96
f 34//97 41//97 39//97
f 37//98 42//98 40//98
f 33//99 35//99 39//99
f 36//100 40//100 41//100
f 41//101 47//101 43//101
f 40//102 42//102 44//102
f 38//103 39//103 43//103
f 40//104 45//104 47//104
f 44//105 51//105 48//105
f 43//106 52//106 49//106
f 45//107 48//107 50//107
f 47//108 50//108 52//108
f 52//109 56//109 53//109
f 48//110 57//110 54//110
f 50//111 54//111 56//111
f 48//112 51//112 55//112
f 56//113 61//113 58//113
f 57//114 62//114 59//114
f 54//115 59//115 61//115
f 55//116 60//116 62//116
f 61//117 1//117 3//117
f 62//118 4//118 6//118
f 59//119 6//119 1//119
f 62//120 60//120 7//120
