# Blender v2.91.0 OBJ File: 'rubik_cube.blend'
# www.blender.org
mtllib rubik_cube.mtl
o Cube.001
v 1.000000 1.000000 1.000000
v -1.000000 1.000000 -1.000000
v -1.000000 1.000000 1.000000
v 1.000000 -1.000000 -1.000000
v -1.000000 -1.000000 -1.000000
v 1.000000 1.000000 -1.000000
v 1.000000 -1.000000 1.000000
v -1.000000 -1.000000 1.000000
vn -1.0000 0.0000 0.0000
vn 0.0000 1.0000 -0.0000
vn 0.0000 -0.0000 -1.0000
vn 0.0000 -1.0000 0.0000
vn 1.0000 0.0000 0.0000
vn 0.0000 0.0000 1.0000
usemtl blue
s off
f 3//1 5//1 8//1
f 3//1 2//1 5//1
usemtl red
f 1//2 2//2 3//2
f 1//2 6//2 2//2
usemtl green
f 2//3 4//3 5//3
f 2//3 6//3 4//3
usemtl yellow
f 8//4 4//4 7//4
f 8//4 5//4 4//4
usemtl purple
f 6//5 7//5 4//5
f 6//5 1//5 7//5
usemtl cyan
f 1//6 8//6 7//6
f 1//6 3//6 8//6
