# Blender 3.4.1
# www.blender.org
mtllib texture_cube_4.mtl
o Cube
v 1.000000 1.000000 -1.000000
v 1.000000 -1.000000 -1.000000
v 1.000000 1.000000 1.000000
v 1.000000 -1.000000 1.000000
v -0.851766 0.851766 -1.000000
v -0.851766 -0.851766 -1.000000
v -0.848222 0.848222 1.000000
v -0.848222 -0.848222 1.000000
v 1.000000 1.000000 -1.000000
v 1.000000 -1.000000 -1.000000
v 1.000000 1.000000 1.000000
v 1.000000 -1.000000 1.000000
v 1.000000 0.851481 -0.869554
v 1.000000 -0.897486 -0.869554
v 1.000000 0.851481 0.879412
v 1.000000 -0.897486 0.879412
v -1.000000 -0.863764 0.863764
v -1.000000 0.863764 0.863764
v 0.848222 0.848222 1.000000
v 0.848222 -0.848222 1.000000
v -1.000000 -0.863764 -0.863764
v 0.851766 -0.851766 -1.000000
v 0.851766 0.851766 -1.000000
v -1.000000 0.863764 -0.863764
v -1.000000 -1.000000 -1.000000
v -1.000000 -1.000000 1.000000
v -1.000000 1.000000 1.000000
v -1.000000 1.000000 -1.000000
vn -0.0000 1.0000 -0.0000
vn -0.0000 -0.0000 1.0000
vn -1.0000 -0.0000 -0.0000
vn -0.0000 -1.0000 -0.0000
vn -0.0000 -0.0000 -1.0000
vn 1.0000 -0.0000 -0.0000
vt 0.984000 0.010000
vt 0.013178 0.986822
vt 0.990991 0.992983
vt 0.013178 0.013178
vt 0.004000 0.010000
vt 0.982646 0.991572
vt 0.009818 0.992983
vt 0.996308 0.008081
vt 0.997590 0.997590
vt 0.914659 0.914659
vt 0.997590 0.002410
vt 0.914659 0.085342
vt 0.086416 0.917973
vt 0.086416 0.095343
vt 0.980506 0.986030
vt 0.980506 0.029120
vt 0.023596 0.986030
vt 0.023596 0.029120
vt 0.987079 0.982521
vt 0.918093 0.914970
vt 0.987079 0.006967
vt 0.918094 0.078168
vt 0.011524 0.982522
vt 0.081292 0.914970
vt 0.011524 0.006967
vt 0.081292 0.078168
vt 0.919921 0.082143
vt 0.919921 0.917858
vt 0.909046 0.917973
vt 0.920635 0.083754
vt 0.084206 0.082143
vt 0.002410 0.002410
vt 0.085342 0.085342
vt 0.002410 0.997590
vt 0.085342 0.914658
vt 0.084206 0.917857
vt 0.990991 0.011810
vt 0.986822 0.013178
vt 0.018300 0.016237
vt 0.009818 0.011810
vt 0.012817 0.021743
vt 0.985827 0.016237
vt 0.004000 0.990000
vt 0.012817 0.991572
vt 0.985827 0.983763
vt 0.984000 0.990000
vt 0.986822 0.986822
vt 0.018300 0.983763
s 0
usemtl wood
f 28/46/1 3/5/1 1/1/1
f 2/3/4 26/40/4 25/37/4
f 28/46/1 27/43/1 3/5/1
f 2/3/4 4/7/4 26/40/4
f 13/20/6 10/16/6 9/15/6
f 15/24/6 12/18/6 16/26/6
f 13/20/6 11/17/6 15/24/6
f 14/22/6 12/18/6 10/16/6
f 7/13/2 26/41/2 8/14/2
f 20/30/2 3/6/2 19/29/2
f 19/29/2 27/44/2 7/13/2
f 8/14/2 4/8/2 20/30/2
f 22/33/5 25/38/5 6/12/5
f 23/35/5 2/4/5 22/33/5
f 6/12/5 28/47/5 5/10/5
f 5/10/5 1/2/5 23/35/5
f 21/31/3 26/42/3 17/27/3
f 17/27/3 27/45/3 18/28/3
f 24/36/3 25/39/3 21/31/3
f 18/28/3 28/48/3 24/36/3
f 13/20/6 14/22/6 10/16/6
f 15/24/6 11/17/6 12/18/6
f 13/20/6 9/15/6 11/17/6
f 14/22/6 16/26/6 12/18/6
f 7/13/2 27/44/2 26/41/2
f 20/30/2 4/8/2 3/6/2
f 19/29/2 3/6/2 27/44/2
f 8/14/2 26/41/2 4/8/2
f 22/33/5 2/4/5 25/38/5
f 23/35/5 1/2/5 2/4/5
f 6/12/5 25/38/5 28/47/5
f 5/10/5 28/47/5 1/2/5
f 21/31/3 25/39/3 26/42/3
f 17/27/3 26/42/3 27/45/3
f 24/36/3 28/48/3 25/39/3
f 18/28/3 27/45/3 28/48/3
usemtl daisy
f 5/9/5 22/32/5 6/11/5
f 5/9/5 23/34/5 22/32/5
usemtl kari
f 14/21/6 15/23/6 16/25/6
f 14/21/6 13/19/6 15/23/6
usemtl wood-emission
f 19/29/2 8/14/2 20/30/2
f 18/28/3 21/31/3 17/27/3
f 19/29/2 7/13/2 8/14/2
f 18/28/3 24/36/3 21/31/3
