# Blender v2.91.0 OBJ File: 'texture_cube_3.blend'
# www.blender.org
mtllib texture_cube_3.mtl
o Cube
v -1.000000 1.000000 1.000000
v -1.000000 -1.000000 1.000000
v -1.000000 1.000000 -1.000000
v -1.000000 -1.000000 -1.000000
v 1.000000 1.000000 1.000000
v 1.000000 -1.000000 1.000000
v 1.000000 1.000000 -1.000000
v 1.000000 -1.000000 -1.000000
vt 0.500000 0.875000
vt 0.250000 0.625000
vt 0.500000 0.625000
vt 0.000000 0.375000
vt 0.250000 0.375000
vt 1.000000 0.625000
vt 0.750000 0.375000
vt 1.000000 0.375000
vt 0.500000 0.375000
vt 0.250000 0.125000
vt 0.500000 0.125000
vt 0.250000 0.875000
vt 0.000000 0.625000
vt 0.750000 0.625000
vt 0.986822 0.986822
vt 0.013178 0.013178
vt 0.986822 0.013178
vt 0.013178 0.986822
vn 0.0000 1.0000 0.0000
vn 0.0000 0.0000 -1.0000
vn 1.0000 0.0000 0.0000
vn 0.0000 -1.0000 0.0000
vn -1.0000 0.0000 0.0000
vn 0.0000 0.0000 1.0000
usemtl brick
s off
f 5/1/1 3/2/1 1/3/1
f 3/2/2 8/4/2 4/5/2
f 7/6/3 6/7/3 8/8/3
f 2/9/4 8/10/4 6/11/4
f 1/3/5 4/5/5 2/9/5
f 5/1/1 7/12/1 3/2/1
f 3/2/2 7/13/2 8/4/2
f 7/6/3 5/14/3 6/7/3
f 2/9/4 4/5/4 8/10/4
f 1/3/5 3/2/5 4/5/5
usemtl daisy
f 5/15/6 2/16/6 6/17/6
f 5/15/6 1/18/6 2/16/6
