# Blender v2.91.0 OBJ File: 'texture_cube_4.blend'
# www.blender.org
mtllib texture_cube_4.mtl
o Cube
v -0.008628 1.000000 1.000000
v -0.008628 -1.000000 1.000000
v -0.008628 1.000000 -1.000000
v -0.008628 -1.000000 -1.000000
v 1.991372 1.000000 1.000000
v 1.991372 -1.000000 1.000000
v 1.991372 1.000000 -1.000000
v 1.991372 -1.000000 -1.000000
vt 0.984000 0.990000
vt 0.004000 0.010000
vt 0.984000 0.010000
vt 0.982646 0.991572
vt 0.012817 0.021743
vt 0.996308 0.008081
vt 0.985827 0.983763
vt 0.018300 0.016237
vt 0.985827 0.016237
vt 0.990991 0.992983
vt 0.009818 0.011810
vt 0.990991 0.011810
vt 0.004000 0.990000
vt 0.012817 0.991572
vt 0.018300 0.983763
vt 0.009818 0.992983
vt 0.986822 0.986822
vt 0.013178 0.013178
vt 0.986822 0.013178
vt 0.013178 0.986822
vt 0.980506 0.986030
vt 0.023596 0.029120
vt 0.980506 0.029120
vt 0.023596 0.986030
vn 0.0000 1.0000 0.0000
vn 0.0000 0.0000 -1.0000
vn 1.0000 0.0000 0.0000
vn 0.0000 -1.0000 0.0000
vn 0.0000 0.0000 1.0000
vn -1.0000 0.0000 0.0000
usemtl wood
s off
f 5/1/1 3/2/1 1/3/1
f 3/4/2 8/5/2 4/6/2
f 7/7/3 6/8/3 8/9/3
f 2/10/4 8/11/4 6/12/4
f 5/1/1 7/13/1 3/2/1
f 3/4/2 7/14/2 8/5/2
f 7/7/3 5/15/3 6/8/3
f 2/10/4 4/16/4 8/11/4
usemtl daisy
f 5/17/5 2/18/5 6/19/5
f 5/17/5 1/20/5 2/18/5
usemtl kari
f 1/21/6 4/22/6 2/23/6
f 1/21/6 3/24/6 4/22/6
